<?xml version="1.0" encoding="iso-8859-1"?>
<!-- Generator: Adobe Illustrator 19.0.0, SVG Export Plug-In . SVG Version: 6.00 Build 0)  -->
<svg version="1.1" id="Layer_1" xmlns="http://www.w3.org/2000/svg" xmlns:xlink="http://www.w3.org/1999/xlink" x="0px" y="0px"
	 viewBox="0 0 512 512" style="enable-background:new 0 0 512 512;" xml:space="preserve">
<polygon style="fill:#E5FFE8;" points="231.394,87.077 243.697,46.922 268.303,46.922 280.606,87.077 "/>
<path style="fill:#B3B3B3;" d="M43.615,291.161c0-117.296,95.088-212.384,212.385-212.384c117.296,0,212.385,95.088,212.385,212.384
	H43.615z"/>
<path style="opacity:0.1;enable-background:new    ;" d="M277.808,79.885c-7.17-0.731-14.445-1.108-21.808-1.108
	c-117.297,0-212.385,95.088-212.385,212.384H87.23C87.23,181.228,170.756,90.804,277.808,79.885z"/>
<path style="fill:#FFE7CC;" d="M113.056,472.22c-2.976,0-5.811-1.27-7.794-3.489c-1.982-2.22-2.924-5.18-2.589-8.137l3.659-32.273
	c0.296-2.606,1.56-5.004,3.542-6.722l79.742-69.068c1.9-1.646,4.328-2.551,6.841-2.551h87.952c13.406,0,24.313,10.907,24.313,24.313
	c0,13.406-10.907,24.313-24.313,24.313h-68.886v25.1l142.56-0.113l42.18-42.181c4.592-4.591,10.698-7.12,17.192-7.12
	c6.495,0,12.6,2.529,17.193,7.12c9.478,9.479,9.478,24.905-0.001,34.384l-53.361,53.361c-1.959,1.959-4.617,3.061-7.388,3.061
	H113.056V472.22z"/>
<g style="opacity:0.1;">
	<path d="M117.017,449.817c0.296-2.606,1.56-5.005,3.542-6.722l79.742-69.068c1.9-1.646,4.328-2.551,6.841-2.551h87.952
		c5.029,0,9.708,1.535,13.59,4.162c0.024-0.445,0.039-0.893,0.039-1.346c0-13.406-10.907-24.313-24.313-24.313h-87.952
		c-2.513,0-4.941,0.906-6.841,2.551l-79.742,69.068c-1.982,1.717-3.246,4.116-3.542,6.722l-3.659,32.273
		c-0.335,2.957,0.607,5.917,2.589,8.137s4.818,3.489,7.794,3.489h1.42L117.017,449.817z"/>
</g>
<path style="fill:#CCFFE8;" d="M132.593,487.077c0,5.967-4.837,10.805-10.806,10.805H75.864c-5.968,0-10.806-4.838-10.806-10.805
	v-97.251c0-5.967,4.837-10.805,10.806-10.805h45.923c5.968,0,10.806,4.838,10.806,10.805V487.077z"/>
<path style="opacity:0.1;enable-background:new    ;" d="M86.727,487.077v-97.251c0-5.967,4.837-10.805,10.806-10.805H75.864
	c-5.968,0-10.806,4.838-10.806,10.805v97.251c0,5.967,4.837,10.805,10.806,10.805h21.669
	C91.563,497.882,86.727,493.044,86.727,487.077z"/>
<path style="fill:#E5FFE8;" d="M504.163,300.932c0,5.771-4.678,10.449-10.449,10.449H18.286c-5.771,0-10.449-4.678-10.449-10.449
	v-12.016c0-5.77,4.678-10.449,10.449-10.449h475.429c5.771,0,10.449,4.679,10.449,10.449V300.932z"/>
<path style="fill:#B3B3B3;" d="M237.642,56.474c-1.829,0-3.516-0.98-4.422-2.568l-18.358-32.171c-0.899-1.576-0.892-3.51,0.02-5.079
	c0.911-1.569,2.588-2.535,4.402-2.535h73.431c1.814,0,3.492,0.965,4.402,2.535c0.911,1.569,0.918,3.505,0.019,5.079l-18.358,32.171
	c-0.906,1.588-2.594,2.568-4.422,2.568H237.642z"/>
<path d="M132.747,245.552c-4.328,0-7.837,3.509-7.837,7.837c0,4.328,3.509,7.837,7.837,7.837h35.438
	c4.328,0,7.837-3.509,7.837-7.837c0-4.328-3.509-7.837-7.837-7.837H132.747z"/>
<path d="M417.456,366.456c-8.586,0-16.659,3.344-22.733,9.416l-39.887,39.888l-131.474,0.105v-9.423h61.049
	c17.727,0,32.149-14.422,32.149-32.149c0-17.727-14.423-32.149-32.149-32.149h-87.952c-4.397,0-8.649,1.586-11.971,4.464
	l-44.642,38.666c-2.04-8.082-9.351-14.09-18.058-14.09H75.864c-10.28,0-18.643,8.362-18.643,18.642v97.251
	c0,10.28,8.363,18.642,18.643,18.642h45.923c10.28,0,18.643-8.362,18.643-18.642v-7.021h38.247c4.328,0,7.837-3.509,7.837-7.837
	s-3.509-7.837-7.837-7.837h-38.248V405.5l54.319-47.047c0.474-0.412,1.081-0.637,1.709-0.637h87.952
	c9.084,0,16.476,7.391,16.476,16.476c0,9.084-7.392,16.476-16.476,16.476h-5.945v-21.053c0-4.328-3.509-7.837-7.837-7.837
	s-7.837,3.509-7.837,7.837v21.053h-47.267c-4.328,0-7.837,3.509-7.837,7.837v25.103c0,2.079,0.827,4.074,2.298,5.543
	c1.47,1.469,3.462,2.294,5.539,2.294c0.002,0,0.004,0,0.006,0l142.56-0.113c2.076-0.001,4.068-0.828,5.535-2.296l42.179-42.18
	c3.113-3.112,7.251-4.825,11.652-4.825s8.539,1.714,11.651,4.825c6.423,6.424,6.423,16.877,0,23.301l-2.055,2.055l-12.955-12.955
	c-3.06-3.06-8.023-3.06-11.082,0c-3.06,3.06-3.06,8.023,0,11.082l12.955,12.955l-40.223,40.223
	c-0.494,0.493-1.149,0.765-1.847,0.765H206.889c-4.328,0-7.837,3.509-7.837,7.837c0,4.328,3.509,7.837,7.837,7.837h167.009
	c4.884,0,9.476-1.902,12.93-5.356l53.361-53.361c12.534-12.536,12.534-32.932,0-45.467
	C434.117,369.8,426.044,366.456,417.456,366.456z M124.757,487.077c0,1.637-1.332,2.969-2.97,2.969h-15.125v-35.864
	c0-4.328-3.509-7.837-7.837-7.837s-7.837,3.509-7.837,7.837v35.864H75.864c-1.637,0-2.97-1.331-2.97-2.969v-97.251
	c0-1.637,1.332-2.969,2.97-2.969h45.923c1.637,0,2.97,1.331,2.97,2.969V487.077z"/>
<path d="M493.714,270.63h-18.455c-2.152-23.44-7.991-46.177-17.48-67.817c-11.819-26.953-28.673-50.944-50.097-71.304
	c-3.137-2.981-8.098-2.856-11.079,0.282c-2.981,3.137-2.855,8.098,0.282,11.079c19.904,18.917,35.562,41.202,46.54,66.237
	c8.614,19.645,13.997,40.264,16.104,61.524h-68.738c-4.328,0-7.837,3.509-7.837,7.837s3.509,7.837,7.837,7.837h102.922
	c1.44,0,2.612,1.172,2.612,2.612v12.015c0,1.44-1.172,2.612-2.612,2.612H18.286c-1.44,0-2.612-1.172-2.612-2.612v-12.016
	c0-1.44,1.172-2.612,2.612-2.612h334.89c4.328,0,7.837-3.509,7.837-7.837c0-4.328-3.509-7.837-7.837-7.837H52.491
	c0.316-3.156,0.706-6.291,1.165-9.404h52.923c4.328,0,7.837-3.509,7.837-7.837c0-4.328-3.509-7.837-7.837-7.837H56.606
	C77.387,154.648,158.887,86.615,256,86.615c43.789,0,85.545,13.635,120.754,39.43c3.491,2.557,8.396,1.801,10.954-1.691
	c2.558-3.491,1.801-8.395-1.691-10.953c-30.214-22.135-64.903-35.944-101.603-40.645l-3.201-10.443
	c1.777-1.114,3.3-2.644,4.373-4.523l18.357-32.17c2.277-3.987,2.258-8.932-0.047-12.898c-2.305-3.972-6.589-6.439-11.18-6.439
	h-73.431c-4.592,0-8.876,2.467-11.178,6.434c-2.307,3.97-2.326,8.913-0.05,12.9l18.359,32.171c1.072,1.879,2.594,3.408,4.372,4.523
	l-3.208,10.469C126.223,85.903,46.274,168.199,36.757,270.63H18.286C8.203,270.63,0,278.833,0,288.915v12.016
	c0,10.082,8.203,18.286,18.286,18.286h475.429c10.082,0,18.286-8.204,18.286-18.286v-12.016
	C512,278.833,503.796,270.63,493.714,270.63z M256,70.941c-3.878,0-7.73,0.109-11.561,0.308l2.126-6.939h18.868l2.125,6.937
	C263.723,71.05,259.869,70.941,256,70.941z M224.011,21.956h63.976l-15.224,26.68h-33.528L224.011,21.956z"/>
<circle style="fill:#8CCCCC;" cx="98.826" cy="412.109" r="10.157"/>
<g>
	<path style="fill:#FFFFFF;" d="M382.485,149.448c-16.435,6.808-21.953,12.327-28.761,28.761
		c-6.808-16.435-12.326-21.953-28.761-28.761c16.434-6.808,21.953-12.326,28.761-28.761
		C360.532,137.122,366.051,142.64,382.485,149.448z"/>
	<circle style="fill:#FFFFFF;" cx="396.392" cy="179.974" r="12.689"/>
</g>
<g>
</g>
<g>
</g>
<g>
</g>
<g>
</g>
<g>
</g>
<g>
</g>
<g>
</g>
<g>
</g>
<g>
</g>
<g>
</g>
<g>
</g>
<g>
</g>
<g>
</g>
<g>
</g>
<g>
</g>
</svg>
