<?xml version="1.0" encoding="iso-8859-1"?>
<!-- Generator: Adobe Illustrator 19.0.0, SVG Export Plug-In . SVG Version: 6.00 Build 0)  -->
<svg version="1.1" id="Layer_1" xmlns="http://www.w3.org/2000/svg" xmlns:xlink="http://www.w3.org/1999/xlink" x="0px" y="0px"
	 viewBox="0 0 511.999 511.999" style="enable-background:new 0 0 511.999 511.999;" xml:space="preserve">
<g>
	<g>
		<path d="M324.799,68.799c-103.222,0-187.2,83.978-187.2,187.2s83.978,187.2,187.2,187.2s187.2-83.978,187.2-187.2
			S428.022,68.799,324.799,68.799z M324.799,407.169c-83.354,0-151.168-67.814-151.168-151.168s67.814-151.17,151.168-151.17
			s151.168,67.814,151.168,151.168S408.154,407.169,324.799,407.169z"/>
	</g>
</g>
<g>
	<g>
		<path d="M324.799,148.019c-59.541,0-107.981,48.44-107.981,107.981s48.44,107.981,107.981,107.981S432.78,315.54,432.78,255.999
			S384.34,148.019,324.799,148.019z M324.799,327.95c-39.673,0-71.949-32.276-71.949-71.949s32.276-71.949,71.949-71.949
			c39.673,0,71.949,32.276,71.949,71.949S364.472,327.95,324.799,327.95z"/>
	</g>
</g>
<g>
	<g>
		<path d="M110.491,68.799c-9.95,0-18.016,8.066-18.016,18.016v96.161H81.959V86.815c0-9.95-8.066-18.016-18.016-18.016
			c-9.95,0-18.016,8.066-18.016,18.016v96.161h-9.896V86.815c0-9.95-8.066-18.016-18.016-18.016S0,76.866,0,86.815v99.764
			c0,17.881,14.547,32.428,32.428,32.428h12.298v206.175c0,9.95,8.066,18.016,18.016,18.016s18.016-8.066,18.016-18.016V219.009
			h15.321c17.881,0,32.428-14.547,32.428-32.428V86.815C128.507,76.866,120.441,68.799,110.491,68.799z"/>
	</g>
</g>
<g>
</g>
<g>
</g>
<g>
</g>
<g>
</g>
<g>
</g>
<g>
</g>
<g>
</g>
<g>
</g>
<g>
</g>
<g>
</g>
<g>
</g>
<g>
</g>
<g>
</g>
<g>
</g>
<g>
</g>
</svg>
